<svg width="581" height="156" viewBox="0 0 581 156" fill="none" xmlns="http://www.w3.org/2000/svg">
<path d="M184.16 62C184.16 54.832 184.16 47.5787 184.16 40.24C184.16 32.9013 184.16 25.648 184.16 18.48C186.72 18.48 189.301 18.48 191.904 18.48C194.507 18.48 197.088 18.48 199.648 18.48C202.805 18.48 205.707 19.0347 208.352 20.144C210.997 21.2107 213.301 22.7253 215.264 24.688C217.227 26.6507 218.741 28.9547 219.808 31.6C220.917 34.2027 221.472 37.0613 221.472 40.176C221.472 43.2907 220.917 46.1707 219.808 48.816C218.741 51.4613 217.227 53.7867 215.264 55.792C213.301 57.7547 210.997 59.2907 208.352 60.4C205.707 61.4667 202.805 62 199.648 62C197.088 62 194.507 62 191.904 62C189.301 62 186.72 62 184.16 62ZM199.648 28.592C198.965 28.592 198.261 28.592 197.536 28.592C196.811 28.592 196.085 28.592 195.36 28.592C195.36 32.432 195.36 36.3147 195.36 40.24C195.36 44.1653 195.36 48.048 195.36 51.888C196.085 51.888 196.811 51.888 197.536 51.888C198.261 51.888 198.965 51.888 199.648 51.888C201.781 51.888 203.637 51.376 205.216 50.352C206.795 49.328 208.011 47.9413 208.864 46.192C209.717 44.4 210.144 42.3947 210.144 40.176C210.144 37.9573 209.717 35.9733 208.864 34.224C208.011 32.4747 206.795 31.1093 205.216 30.128C203.637 29.104 201.781 28.592 199.648 28.592ZM255.438 60.464C252.494 61.7013 249.571 62.4693 246.67 62.768C243.768 63.0667 241.016 62.896 238.414 62.256C235.854 61.6587 233.571 60.6133 231.566 59.12C229.56 57.6267 227.982 55.728 226.83 53.424C225.72 51.12 225.166 48.4533 225.166 45.424C225.166 42.9067 225.571 40.6027 226.382 38.512C227.235 36.3787 228.43 34.5227 229.966 32.944C231.502 31.3227 233.315 30.0853 235.406 29.232C237.496 28.336 239.779 27.888 242.253 27.888C244.472 27.888 246.478 28.2507 248.27 28.976C250.062 29.7013 251.619 30.7253 252.942 32.048C254.264 33.328 255.331 34.864 256.142 36.656C256.952 38.448 257.464 40.4107 257.678 42.544C257.891 44.6773 257.763 46.9387 257.294 49.328C253.795 49.328 250.275 49.328 246.734 49.328C243.192 49.328 239.672 49.328 236.174 49.328C236.984 50.9493 238.328 52.1013 240.206 52.784C242.126 53.4667 244.387 53.68 246.99 53.424C249.635 53.168 252.451 52.4853 255.438 51.376C255.438 52.8693 255.438 54.384 255.438 55.92C255.438 57.456 255.438 58.9707 255.438 60.464ZM241.998 37.36C240.76 37.36 239.608 37.7013 238.542 38.384C237.518 39.0667 236.728 40.112 236.174 41.52C238.094 41.52 240.014 41.52 241.934 41.52C243.896 41.52 245.838 41.52 247.758 41.52C247.246 40.0693 246.478 39.024 245.454 38.384C244.472 37.7013 243.32 37.36 241.998 37.36ZM270.261 62C268.384 56.5387 266.464 51.0347 264.501 45.488C262.581 39.8987 260.682 34.3733 258.805 28.912C260.64 28.912 262.474 28.912 264.309 28.912C266.186 28.912 268.042 28.912 269.877 28.912C270.986 32.2827 272.096 35.6747 273.205 39.088C274.357 42.4587 275.466 45.8293 276.533 49.2C277.642 45.8293 278.752 42.4587 279.861 39.088C280.97 35.6747 282.058 32.2827 283.125 28.912C284.917 28.912 286.73 28.912 288.565 28.912C290.4 28.912 292.213 28.912 294.005 28.912C292.128 34.3733 290.208 39.8987 288.245 45.488C286.325 51.0347 284.426 56.5387 282.549 62C280.544 62 278.496 62 276.405 62C274.314 62 272.266 62 270.261 62ZM325.062 60.464C322.119 61.7013 319.196 62.4693 316.295 62.768C313.393 63.0667 310.641 62.896 308.039 62.256C305.479 61.6587 303.196 60.6133 301.191 59.12C299.185 57.6267 297.607 55.728 296.455 53.424C295.345 51.12 294.791 48.4533 294.791 45.424C294.791 42.9067 295.196 40.6027 296.007 38.512C296.86 36.3787 298.055 34.5227 299.591 32.944C301.127 31.3227 302.94 30.0853 305.031 29.232C307.121 28.336 309.404 27.888 311.878 27.888C314.097 27.888 316.103 28.2507 317.895 28.976C319.687 29.7013 321.244 30.7253 322.567 32.048C323.889 33.328 324.956 34.864 325.767 36.656C326.577 38.448 327.089 40.4107 327.303 42.544C327.516 44.6773 327.388 46.9387 326.919 49.328C323.42 49.328 319.9 49.328 316.359 49.328C312.817 49.328 309.297 49.328 305.799 49.328C306.609 50.9493 307.953 52.1013 309.831 52.784C311.751 53.4667 314.012 53.68 316.615 53.424C319.26 53.168 322.076 52.4853 325.062 51.376C325.062 52.8693 325.062 54.384 325.062 55.92C325.062 57.456 325.062 58.9707 325.062 60.464ZM311.623 37.36C310.385 37.36 309.233 37.7013 308.167 38.384C307.143 39.0667 306.353 40.112 305.799 41.52C307.719 41.52 309.639 41.52 311.559 41.52C313.521 41.52 315.463 41.52 317.383 41.52C316.871 40.0693 316.103 39.024 315.079 38.384C314.097 37.7013 312.945 37.36 311.623 37.36ZM333.215 62C333.215 54.2773 333.215 46.4907 333.215 38.64C333.215 30.7893 333.215 23.0027 333.215 15.28C334.964 15.28 336.735 15.28 338.527 15.28C340.319 15.28 342.068 15.28 343.775 15.28C343.775 23.0027 343.775 30.7893 343.775 38.64C343.775 46.4907 343.775 54.2773 343.775 62C342.068 62 340.319 62 338.527 62C336.735 62 334.964 62 333.215 62ZM366.825 63.024C364.35 63.024 362.046 62.5973 359.913 61.744C357.78 60.848 355.924 59.6107 354.345 58.032C352.766 56.4107 351.529 54.5333 350.633 52.4C349.78 50.2667 349.353 47.9413 349.353 45.424C349.353 42.9067 349.78 40.5813 350.633 38.448C351.529 36.3147 352.766 34.4587 354.345 32.88C355.924 31.3013 357.78 30.0853 359.913 29.232C362.046 28.336 364.35 27.888 366.825 27.888C369.342 27.888 371.646 28.336 373.737 29.232C375.87 30.0853 377.726 31.3013 379.305 32.88C380.884 34.4587 382.1 36.3147 382.953 38.448C383.849 40.5813 384.297 42.9067 384.297 45.424C384.297 47.9413 383.849 50.2667 382.953 52.4C382.1 54.5333 380.884 56.4107 379.305 58.032C377.726 59.6107 375.87 60.848 373.737 61.744C371.646 62.5973 369.342 63.024 366.825 63.024ZM366.825 53.488C368.916 53.488 370.58 52.7413 371.817 51.248C373.097 49.712 373.737 47.7707 373.737 45.424C373.737 43.0347 373.097 41.1147 371.817 39.664C370.58 38.1707 368.916 37.424 366.825 37.424C364.734 37.424 363.049 38.1707 361.769 39.664C360.532 41.1147 359.913 43.0347 359.913 45.424C359.913 47.7707 360.532 49.712 361.769 51.248C363.049 52.7413 364.734 53.488 366.825 53.488ZM400.08 72.24C398.373 72.24 396.624 72.24 394.832 72.24C393.04 72.24 391.269 72.24 389.52 72.24C389.52 65.1147 389.52 57.904 389.52 50.608C389.52 43.2693 389.52 36.0373 389.52 28.912C391.269 28.912 393.04 28.912 394.832 28.912C396.624 28.912 398.373 28.912 400.08 28.912C400.08 29.2107 400.08 29.5093 400.08 29.808C400.08 30.1067 400.08 30.4267 400.08 30.768C401.147 29.9147 402.363 29.2533 403.728 28.784C405.093 28.272 406.544 28.016 408.08 28.016C410.213 28.016 412.24 28.4427 414.16 29.296C416.08 30.1067 417.765 31.28 419.216 32.816C420.709 34.352 421.861 36.1867 422.672 38.32C423.525 40.4533 423.952 42.8213 423.952 45.424C423.952 47.984 423.525 50.3307 422.672 52.464C421.861 54.5973 420.709 56.4533 419.216 58.032C417.765 59.568 416.08 60.7627 414.16 61.616C412.24 62.4693 410.192 62.896 408.016 62.896C406.48 62.896 405.029 62.64 403.664 62.128C402.341 61.6587 401.147 60.976 400.08 60.08C400.08 62.0853 400.08 64.112 400.08 66.16C400.08 68.208 400.08 70.2347 400.08 72.24ZM406.608 53.552C408.699 53.552 410.341 52.8267 411.536 51.376C412.773 49.8827 413.392 47.8987 413.392 45.424C413.392 42.9493 412.773 40.9867 411.536 39.536C410.341 38.0853 408.699 37.36 406.608 37.36C404.56 37.36 402.917 38.1067 401.68 39.6C400.443 41.0507 399.824 42.992 399.824 45.424C399.824 47.856 400.443 49.8187 401.68 51.312C402.917 52.8053 404.56 53.552 406.608 53.552ZM429.208 62C429.208 56.5387 429.208 51.0347 429.208 45.488C429.208 39.8987 429.208 34.3733 429.208 28.912C430.957 28.912 432.728 28.912 434.52 28.912C436.312 28.912 438.061 28.912 439.768 28.912C439.768 29.2107 439.768 29.488 439.768 29.744C439.768 30 439.768 30.2773 439.768 30.576C440.877 29.7653 442.114 29.1467 443.48 28.72C444.845 28.2507 446.253 28.016 447.704 28.016C449.282 28.016 450.733 28.2933 452.056 28.848C453.378 29.36 454.509 30.128 455.448 31.152C456.813 30.1707 458.349 29.4027 460.056 28.848C461.805 28.2933 463.597 28.016 465.432 28.016C468.034 28.016 470.274 28.5493 472.152 29.616C474.072 30.6827 475.544 32.1973 476.568 34.16C477.634 36.1227 478.168 38.4907 478.168 41.264C478.168 44.6773 478.168 48.1333 478.168 51.632C478.168 55.1307 478.168 58.5867 478.168 62C476.461 62 474.712 62 472.92 62C471.128 62 469.357 62 467.608 62C467.608 58.8 467.608 55.5573 467.608 52.272C467.608 48.9867 467.608 45.744 467.608 42.544C467.608 41.0933 467.266 39.92 466.584 39.024C465.944 38.0853 464.898 37.616 463.448 37.616C462.04 37.616 460.93 38.064 460.12 38.96C459.352 39.8133 458.968 41.008 458.968 42.544C458.968 45.744 458.968 48.9867 458.968 52.272C458.968 55.5573 458.968 58.8 458.968 62C457.261 62 455.512 62 453.72 62C451.928 62 450.157 62 448.408 62C448.408 58.8 448.408 55.5573 448.408 52.272C448.408 48.9867 448.408 45.744 448.408 42.544C448.408 41.0933 448.066 39.92 447.384 39.024C446.744 38.0853 445.698 37.616 444.248 37.616C442.84 37.616 441.73 38.064 440.92 38.96C440.152 39.8133 439.768 41.008 439.768 42.544C439.768 45.744 439.768 48.9867 439.768 52.272C439.768 55.5573 439.768 58.8 439.768 62C438.061 62 436.312 62 434.52 62C432.728 62 430.957 62 429.208 62ZM513.188 60.464C510.244 61.7013 507.321 62.4693 504.42 62.768C501.518 63.0667 498.766 62.896 496.164 62.256C493.604 61.6587 491.321 60.6133 489.316 59.12C487.31 57.6267 485.732 55.728 484.58 53.424C483.47 51.12 482.916 48.4533 482.916 45.424C482.916 42.9067 483.321 40.6027 484.132 38.512C484.985 36.3787 486.18 34.5227 487.716 32.944C489.252 31.3227 491.065 30.0853 493.156 29.232C495.246 28.336 497.529 27.888 500.003 27.888C502.222 27.888 504.228 28.2507 506.02 28.976C507.812 29.7013 509.369 30.7253 510.692 32.048C512.014 33.328 513.081 34.864 513.892 36.656C514.702 38.448 515.214 40.4107 515.428 42.544C515.641 44.6773 515.513 46.9387 515.044 49.328C511.545 49.328 508.025 49.328 504.484 49.328C500.942 49.328 497.422 49.328 493.924 49.328C494.734 50.9493 496.078 52.1013 497.956 52.784C499.876 53.4667 502.137 53.68 504.74 53.424C507.385 53.168 510.201 52.4853 513.188 51.376C513.188 52.8693 513.188 54.384 513.188 55.92C513.188 57.456 513.188 58.9707 513.188 60.464ZM499.748 37.36C498.51 37.36 497.358 37.7013 496.292 38.384C495.268 39.0667 494.478 40.112 493.924 41.52C495.844 41.52 497.764 41.52 499.684 41.52C501.646 41.52 503.588 41.52 505.508 41.52C504.996 40.0693 504.228 39.024 503.204 38.384C502.222 37.7013 501.07 37.36 499.748 37.36ZM521.02 62C521.02 56.5387 521.02 51.0347 521.02 45.488C521.02 39.8987 521.02 34.3733 521.02 28.912C522.769 28.912 524.54 28.912 526.332 28.912C528.124 28.912 529.873 28.912 531.58 28.912C531.58 29.2107 531.58 29.488 531.58 29.744C531.58 30 531.58 30.2773 531.58 30.576C532.732 29.7653 534.012 29.1467 535.42 28.72C536.871 28.2507 538.428 28.016 540.092 28.016C542.524 28.016 544.657 28.5707 546.492 29.68C548.369 30.7893 549.82 32.3893 550.844 34.48C551.911 36.528 552.444 39.0027 552.444 41.904C552.444 45.232 552.444 48.5813 552.444 51.952C552.444 55.3227 552.444 58.672 552.444 62C550.737 62 548.988 62 547.196 62C545.404 62 543.633 62 541.884 62C541.884 58.928 541.884 55.8133 541.884 52.656C541.884 49.4987 541.884 46.384 541.884 43.312C541.884 41.6053 541.479 40.24 540.668 39.216C539.9 38.1493 538.663 37.616 536.956 37.616C535.249 37.616 533.927 38.1067 532.988 39.088C532.049 40.0693 531.58 41.4773 531.58 43.312C531.58 46.384 531.58 49.4987 531.58 52.656C531.58 55.8133 531.58 58.928 531.58 62C529.873 62 528.124 62 526.332 62C524.54 62 522.769 62 521.02 62ZM562.414 62C562.414 58.0747 562.414 54.128 562.414 50.16C562.414 46.192 562.414 42.2667 562.414 38.384C561.56 38.384 560.686 38.384 559.79 38.384C558.936 38.384 558.083 38.384 557.23 38.384C557.23 36.8053 557.23 35.2267 557.23 33.648C557.23 32.0693 557.23 30.4907 557.23 28.912C558.083 28.912 558.936 28.912 559.79 28.912C560.686 28.912 561.56 28.912 562.414 28.912C562.414 27.4187 562.414 25.9467 562.414 24.496C562.414 23.0027 562.414 21.5307 562.414 20.08C564.163 20.08 565.934 20.08 567.726 20.08C569.518 20.08 571.267 20.08 572.974 20.08C572.974 21.5307 572.974 23.0027 572.974 24.496C572.974 25.9467 572.974 27.4187 572.974 28.912C573.955 28.912 574.958 28.912 575.982 28.912C577.006 28.912 578.008 28.912 578.99 28.912C578.99 30.4907 578.99 32.0693 578.99 33.648C578.99 35.2267 578.99 36.8053 578.99 38.384C578.008 38.384 577.006 38.384 575.982 38.384C574.958 38.384 573.955 38.384 572.974 38.384C572.974 42.2667 572.974 46.192 572.974 50.16C572.974 54.128 572.974 58.0747 572.974 62C571.267 62 569.518 62 567.726 62C565.934 62 564.163 62 562.414 62ZM219.296 137.696C214.859 139.488 210.72 140.512 206.88 140.768C203.083 141.067 199.648 140.725 196.576 139.744C193.504 138.72 190.88 137.184 188.704 135.136C186.528 133.088 184.864 130.656 183.712 127.84C182.56 125.024 181.984 121.952 181.984 118.624C181.984 115.339 182.517 112.309 183.584 109.536C184.651 106.72 186.208 104.288 188.256 102.24C190.347 100.192 192.864 98.592 195.808 97.44C198.752 96.288 202.101 95.7333 205.856 95.776C209.611 95.776 213.728 96.4587 218.208 97.824C218.208 99.616 218.208 101.429 218.208 103.264C218.208 105.056 218.208 106.848 218.208 108.64C214.667 107.232 211.381 106.421 208.352 106.208C205.365 105.995 202.741 106.315 200.48 107.168C198.261 108.021 196.512 109.387 195.232 111.264C193.995 113.099 193.376 115.403 193.376 118.176C193.376 120.608 193.824 122.763 194.72 124.64C195.659 126.517 196.96 127.989 198.624 129.056C200.288 130.123 202.187 130.656 204.32 130.656C205.045 130.656 205.771 130.635 206.496 130.592C207.221 130.507 207.925 130.379 208.608 130.208C208.608 129.099 208.608 127.968 208.608 126.816C208.608 125.664 208.608 124.533 208.608 123.424C207.413 123.424 206.219 123.424 205.024 123.424C203.829 123.424 202.635 123.424 201.44 123.424C201.44 121.845 201.44 120.267 201.44 118.688C201.44 117.067 201.44 115.467 201.44 113.888C204.384 113.888 207.349 113.888 210.336 113.888C213.365 113.888 216.352 113.888 219.296 113.888C219.296 117.813 219.296 121.781 219.296 125.792C219.296 129.803 219.296 133.771 219.296 137.696ZM248.85 140C248.85 139.659 248.85 139.339 248.85 139.04C248.85 138.699 248.85 138.379 248.85 138.08C247.783 138.976 246.567 139.659 245.202 140.128C243.879 140.64 242.45 140.896 240.914 140.896C238.738 140.896 236.69 140.491 234.77 139.68C232.85 138.827 231.143 137.632 229.65 136.096C228.199 134.517 227.047 132.661 226.194 130.528C225.383 128.395 224.978 126.027 224.978 123.424C224.978 120.779 225.383 118.389 226.194 116.256C227.047 114.123 228.199 112.309 229.65 110.816C231.143 109.28 232.85 108.107 234.77 107.296C236.69 106.443 238.717 106.016 240.85 106.016C242.386 106.016 243.837 106.272 245.202 106.784C246.567 107.253 247.783 107.915 248.85 108.768C248.85 108.427 248.85 108.107 248.85 107.808C248.85 107.509 248.85 107.211 248.85 106.912C250.599 106.912 252.37 106.912 254.162 106.912C255.954 106.912 257.703 106.912 259.41 106.912C259.41 112.373 259.41 117.899 259.41 123.488C259.41 129.035 259.41 134.539 259.41 140C257.703 140 255.954 140 254.162 140C252.37 140 250.599 140 248.85 140ZM242.322 131.552C244.37 131.552 246.013 130.805 247.25 129.312C248.487 127.819 249.106 125.856 249.106 123.424C249.106 120.992 248.487 119.051 247.25 117.6C246.013 116.107 244.37 115.36 242.322 115.36C240.231 115.36 238.567 116.085 237.33 117.536C236.135 118.987 235.538 120.949 235.538 123.424C235.538 125.899 236.135 127.883 237.33 129.376C238.567 130.827 240.231 131.552 242.322 131.552ZM269.914 140C269.914 136.075 269.914 132.128 269.914 128.16C269.914 124.192 269.914 120.267 269.914 116.384C269.06 116.384 268.186 116.384 267.29 116.384C266.436 116.384 265.583 116.384 264.73 116.384C264.73 114.805 264.73 113.227 264.73 111.648C264.73 110.069 264.73 108.491 264.73 106.912C265.583 106.912 266.436 106.912 267.29 106.912C268.186 106.912 269.06 106.912 269.914 106.912C269.914 105.419 269.914 103.947 269.914 102.496C269.914 101.003 269.914 99.5307 269.914 98.08C271.663 98.08 273.434 98.08 275.226 98.08C277.018 98.08 278.767 98.08 280.474 98.08C280.474 99.5307 280.474 101.003 280.474 102.496C280.474 103.947 280.474 105.419 280.474 106.912C281.455 106.912 282.458 106.912 283.482 106.912C284.506 106.912 285.508 106.912 286.49 106.912C286.49 108.491 286.49 110.069 286.49 111.648C286.49 113.227 286.49 114.805 286.49 116.384C285.508 116.384 284.506 116.384 283.482 116.384C282.458 116.384 281.455 116.384 280.474 116.384C280.474 120.267 280.474 124.192 280.474 128.16C280.474 132.128 280.474 136.075 280.474 140C278.767 140 277.018 140 275.226 140C273.434 140 271.663 140 269.914 140ZM319.75 138.464C316.806 139.701 313.883 140.469 310.982 140.768C308.081 141.067 305.329 140.896 302.726 140.256C300.166 139.659 297.883 138.613 295.878 137.12C293.873 135.627 292.294 133.728 291.142 131.424C290.033 129.12 289.478 126.453 289.478 123.424C289.478 120.907 289.883 118.603 290.694 116.512C291.547 114.379 292.742 112.523 294.278 110.944C295.814 109.323 297.627 108.085 299.718 107.232C301.809 106.336 304.091 105.888 306.566 105.888C308.785 105.888 310.79 106.251 312.582 106.976C314.374 107.701 315.931 108.725 317.254 110.048C318.577 111.328 319.643 112.864 320.454 114.656C321.265 116.448 321.777 118.411 321.99 120.544C322.203 122.677 322.075 124.939 321.606 127.328C318.107 127.328 314.587 127.328 311.046 127.328C307.505 127.328 303.985 127.328 300.486 127.328C301.297 128.949 302.641 130.101 304.518 130.784C306.438 131.467 308.699 131.68 311.302 131.424C313.947 131.168 316.763 130.485 319.75 129.376C319.75 130.869 319.75 132.384 319.75 133.92C319.75 135.456 319.75 136.971 319.75 138.464ZM306.31 115.36C305.073 115.36 303.921 115.701 302.854 116.384C301.83 117.067 301.041 118.112 300.486 119.52C302.406 119.52 304.326 119.52 306.246 119.52C308.209 119.52 310.15 119.52 312.07 119.52C311.558 118.069 310.79 117.024 309.766 116.384C308.785 115.701 307.633 115.36 306.31 115.36ZM333.678 140C332.014 134.539 330.328 129.035 328.622 123.488C326.958 117.899 325.294 112.373 323.63 106.912C325.379 106.912 327.15 106.912 328.942 106.912C330.776 106.912 332.568 106.912 334.318 106.912C335.171 109.899 336.024 112.928 336.878 116C337.774 119.029 338.627 122.037 339.438 125.024C340.163 122.037 340.888 119.029 341.614 116C342.382 112.928 343.107 109.899 343.79 106.912C345.283 106.912 346.776 106.912 348.27 106.912C349.806 106.912 351.32 106.912 352.814 106.912C353.539 109.899 354.264 112.949 354.99 116.064C355.758 119.136 356.483 122.187 357.166 125.216C358.019 122.187 358.872 119.136 359.726 116.064C360.622 112.949 361.475 109.899 362.286 106.912C364.035 106.912 365.784 106.912 367.534 106.912C369.326 106.912 371.075 106.912 372.782 106.912C371.118 112.373 369.432 117.899 367.726 123.488C366.062 129.035 364.398 134.539 362.734 140C361.027 140 359.299 140 357.55 140C355.8 140 354.072 140 352.366 140C351.683 137.355 350.979 134.688 350.254 132C349.571 129.312 348.888 126.667 348.206 124.064C347.523 126.667 346.819 129.312 346.094 132C345.411 134.688 344.728 137.355 344.046 140C342.339 140 340.611 140 338.862 140C337.112 140 335.384 140 333.678 140ZM397.975 140C397.975 139.659 397.975 139.339 397.975 139.04C397.975 138.699 397.975 138.379 397.975 138.08C396.908 138.976 395.692 139.659 394.327 140.128C393.004 140.64 391.575 140.896 390.039 140.896C387.863 140.896 385.815 140.491 383.895 139.68C381.975 138.827 380.268 137.632 378.775 136.096C377.324 134.517 376.172 132.661 375.319 130.528C374.508 128.395 374.103 126.027 374.103 123.424C374.103 120.779 374.508 118.389 375.319 116.256C376.172 114.123 377.324 112.309 378.775 110.816C380.268 109.28 381.975 108.107 383.895 107.296C385.815 106.443 387.842 106.016 389.975 106.016C391.511 106.016 392.962 106.272 394.327 106.784C395.692 107.253 396.908 107.915 397.975 108.768C397.975 108.427 397.975 108.107 397.975 107.808C397.975 107.509 397.975 107.211 397.975 106.912C399.724 106.912 401.495 106.912 403.287 106.912C405.079 106.912 406.828 106.912 408.535 106.912C408.535 112.373 408.535 117.899 408.535 123.488C408.535 129.035 408.535 134.539 408.535 140C406.828 140 405.079 140 403.287 140C401.495 140 399.724 140 397.975 140ZM391.447 131.552C393.495 131.552 395.138 130.805 396.375 129.312C397.612 127.819 398.231 125.856 398.231 123.424C398.231 120.992 397.612 119.051 396.375 117.6C395.138 116.107 393.495 115.36 391.447 115.36C389.356 115.36 387.692 116.085 386.455 117.536C385.26 118.987 384.663 120.949 384.663 123.424C384.663 125.899 385.26 127.883 386.455 129.376C387.692 130.827 389.356 131.552 391.447 131.552ZM418.655 150.24C419.508 147.979 420.383 145.696 421.279 143.392C422.217 141.131 423.113 138.891 423.967 136.672C421.961 131.765 419.913 126.816 417.823 121.824C415.775 116.789 413.748 111.819 411.742 106.912C413.62 106.912 415.497 106.912 417.375 106.912C419.252 106.912 421.108 106.912 422.943 106.912C424.052 109.643 425.161 112.416 426.271 115.232C427.423 118.048 428.553 120.843 429.663 123.616C430.687 120.843 431.732 118.048 432.799 115.232C433.865 112.416 434.911 109.643 435.935 106.912C437.769 106.912 439.604 106.912 441.439 106.912C443.273 106.912 445.108 106.912 446.943 106.912C444.084 114.037 441.204 121.269 438.303 128.608C435.444 135.904 432.585 143.115 429.727 150.24C427.892 150.24 426.036 150.24 424.159 150.24C422.324 150.24 420.489 150.24 418.655 150.24Z" fill="black"/>
<path d="M84.583 3.02811C89.092 -1.11102 96.0527 -0.992802 100.419 3.29666L123.06 25.5398C125.26 27.702 126.5 30.6579 126.5 33.743V72.2264C126.5 78.5775 121.351 83.7263 115 83.7264H69V137.226L68.9922 137.535C68.8366 140.603 66.3766 143.063 63.3086 143.219L63 143.226H6L5.69141 143.219C2.52118 143.058 0.000111844 140.436 0 137.226V78.2264C2.25497e-07 74.9126 2.68629 72.2264 6 72.2264H56.5V33.8631C56.5 30.6426 57.8503 27.5693 60.2227 25.3914L84.583 3.02811ZM11 132.226H58V83.2264H11V132.226ZM92.71 11.1433C92.5201 10.957 92.2175 10.9517 92.0215 11.1316L67.6621 33.4949C67.559 33.5896 67.5 33.7231 67.5 33.8631V72.2264C67.5001 72.5024 67.7239 72.7264 68 72.7264H115C115.276 72.7263 115.5 72.5024 115.5 72.2264V33.743C115.5 33.609 115.446 33.4805 115.351 33.3865L92.71 11.1433Z" fill="black"/>
</svg>
