<svg width="127" height="144" viewBox="0 0 127 144" fill="none" xmlns="http://www.w3.org/2000/svg">
<path d="M84.583 3.02811C89.092 -1.11102 96.0527 -0.992802 100.419 3.29666L123.06 25.5398C125.26 27.702 126.5 30.6579 126.5 33.743V72.2264C126.5 78.5775 121.351 83.7263 115 83.7264H69V137.226L68.9922 137.535C68.8366 140.603 66.3766 143.063 63.3086 143.219L63 143.226H6L5.69141 143.219C2.52118 143.058 0.000111844 140.436 0 137.226V78.2264C2.25497e-07 74.9126 2.68629 72.2264 6 72.2264H56.5V33.8631C56.5 30.6426 57.8503 27.5693 60.2227 25.3914L84.583 3.02811ZM11 132.226H58V83.2264H11V132.226ZM92.71 11.1433C92.5201 10.957 92.2175 10.9517 92.0215 11.1316L67.6621 33.4949C67.559 33.5896 67.5 33.7231 67.5 33.8631V72.2264C67.5001 72.5024 67.7239 72.7264 68 72.7264H115C115.276 72.7263 115.5 72.5024 115.5 72.2264V33.743C115.5 33.609 115.446 33.4805 115.351 33.3865L92.71 11.1433Z" fill="black"/>
</svg>
